<?xml version="1.0" standalone="no"?>
<!DOCTYPE svg PUBLIC "-//W3C//DTD SVG 20010904//EN"
 "http://www.w3.org/TR/2001/REC-SVG-20010904/DTD/svg10.dtd">
<svg version="1.0" xmlns="http://www.w3.org/2000/svg"
 width="101.000000pt" height="101.000000pt" viewBox="0 0 101.000000 101.000000"
 preserveAspectRatio="xMidYMid meet">
<metadata>
Created by potrace 1.14, written by Peter Selinger 2001-2017
</metadata>
<g transform="translate(0.000000,101.000000) scale(0.100000,-0.100000)"
fill="#000000" stroke="none">
<path d="M450 991 c0 -8 -3 -11 -7 -8 -11 12 -43 -25 -43 -49 0 -13 -5 -26
-10 -29 -6 -4 -8 -11 -4 -16 7 -12 -23 -79 -36 -79 -5 0 -7 -6 -4 -14 5 -12
-18 -62 -57 -124 -8 -13 -47 -50 -87 -82 -62 -50 -70 -59 -52 -65 11 -3 24 -4
28 -1 5 3 25 0 45 -6 29 -9 37 -17 39 -37 1 -14 2 -35 3 -46 1 -11 -5 -36 -13
-55 -7 -19 -15 -39 -16 -45 -1 -5 -5 -16 -9 -22 -5 -9 -2 -13 9 -13 9 0 31
-17 49 -37 28 -33 34 -36 49 -24 10 9 16 10 16 2 0 -6 -5 -11 -10 -11 -6 0
-20 -21 -31 -46 -17 -41 -17 -48 -5 -58 20 -14 38 -64 29 -79 -3 -7 -3 -9 2
-5 5 5 14 -1 21 -11 18 -26 62 -33 73 -12 15 30 21 81 11 105 -7 19 -3 36 16
75 13 28 24 55 24 61 0 5 13 16 30 25 17 9 30 13 30 9 0 -4 20 10 44 29 37 31
49 35 78 31 67 -11 99 30 70 89 -12 25 -11 31 3 47 18 20 27 101 14 122 -7 12
19 68 31 68 3 0 23 15 43 34 25 22 37 42 37 60 0 25 -10 31 -58 29 -20 -1
-102 43 -95 51 10 10 -55 -2 -77 -14 -14 -8 -20 -4 -30 20 -7 17 -12 41 -12
54 0 16 -5 23 -13 20 -7 -3 -16 -1 -19 4 -3 6 -15 8 -26 5 -12 -3 -22 1 -26
11 -3 9 -12 16 -20 16 -7 0 -18 8 -23 18 -8 12 -10 13 -11 3z m26 -98 c-3 -8
11 -14 40 -19 35 -5 42 -9 34 -19 -8 -10 -4 -20 15 -40 14 -16 25 -32 25 -36
0 -13 32 -10 60 5 21 12 26 12 37 -3 11 -14 12 -14 13 6 l0 23 54 -27 c47 -23
53 -29 43 -44 -6 -9 -16 -15 -22 -13 -6 3 -18 -8 -25 -23 -8 -15 -20 -35 -27
-44 -9 -11 -12 -34 -9 -70 4 -38 0 -63 -12 -86 -14 -28 -14 -37 -3 -69 11 -30
11 -38 0 -45 -8 -5 -21 -6 -29 -3 -29 12 -65 4 -87 -21 -13 -13 -40 -31 -60
-40 -21 -9 -44 -20 -51 -23 -7 -4 -25 -34 -39 -67 -22 -48 -26 -73 -24 -128 1
-42 -2 -67 -9 -67 -13 0 -32 48 -25 60 3 5 -2 13 -12 18 -23 14 -26 69 -3 85
43 30 29 80 -21 75 -36 -4 -62 54 -48 107 6 21 8 61 5 89 -6 43 -12 54 -37 69
l-31 17 44 43 c24 24 65 86 92 138 27 52 48 94 47 94 -1 0 2 13 8 28 6 16 11
32 11 37 0 4 11 7 25 6 15 0 23 -6 21 -13z"/>
</g>
</svg>
